<?xml version="1.0" encoding="utf-8"?>
<!-- Generator: Adobe Illustrator 16.0.0, SVG Export Plug-In . SVG Version: 6.00 Build 0)  -->
<!DOCTYPE svg PUBLIC "-//W3C//DTD SVG 1.1//EN" "http://www.w3.org/Graphics/SVG/1.1/DTD/svg11.dtd">
<svg version="1.1" id="Layer_1" xmlns="http://www.w3.org/2000/svg" xmlns:xlink="http://www.w3.org/1999/xlink" x="0px" y="0px"
	 width="24px" height="24px" viewBox="0 0 24 24" enable-background="new 0 0 24 24" xml:space="preserve">
<g>
	<g>
		<path d="M17,23.3c-0.7,0-1.4,0-2.2-0.1c-1.8-0.1-3.8-0.1-5.6,0c-0.8,0-1.5,0.1-2.2,0.1c-1.5,0-2.5-0.2-3.2-0.6
			c-0.9-0.5-1.4-1.4-1.4-2.7C2.4,16,6.8,8,12,8c5.2,0,9.6,8,9.6,12.1C21.6,22.9,19.4,23.3,17,23.3z M12,22.2c1,0,2,0,2.8,0.1
			c0.8,0,1.5,0.1,2.2,0.1c2.7,0,3.5-0.5,3.5-2.2c0-3.7-4-11.1-8.6-11.1c-4.6,0-8.6,7.4-8.6,11.1c0,1.2,0.5,1.6,0.9,1.8
			c0.5,0.3,1.4,0.4,2.7,0.4c0.7,0,1.4,0,2.2-0.1C10.1,22.2,11,22.2,12,22.2z"/>
	</g>
	<g>
		<g>
			<g>
				<path d="M3.8,11.5c-1.3,0-2.3-1-2.3-2.3c0-0.9,0.7-4.4,2.3-4.4C5.3,4.8,6,8.3,6,9.2C6,10.4,5,11.5,3.8,11.5z M3.8,5.8
					C3.3,5.8,2.5,8,2.5,9.2c0,0.7,0.6,1.3,1.3,1.3C4.5,10.5,5,9.9,5,9.2C5,8,4.2,5.8,3.8,5.8z"/>
			</g>
			<g>
				<path d="M8.9,7.3c-1.3,0-2.3-1-2.3-2.3c0-0.9,0.7-4.4,2.3-4.4c1.5,0,2.3,3.5,2.3,4.4C11.2,6.3,10.2,7.3,8.9,7.3z M8.9,1.7
					c-0.4,0-1.3,2.2-1.3,3.4c0,0.7,0.6,1.3,1.3,1.3c0.7,0,1.3-0.6,1.3-1.3C10.2,3.9,9.4,1.7,8.9,1.7z"/>
			</g>
		</g>
		<g>
			<g>
				<path d="M20.3,11.5c-1.3,0-2.3-1-2.3-2.3c0-0.9,0.7-4.4,2.3-4.4c1.6,0,2.3,3.5,2.3,4.4C22.5,10.4,21.5,11.5,20.3,11.5z
					 M20.3,5.8C19.8,5.8,19,8,19,9.2c0,0.7,0.6,1.3,1.3,1.3c0.7,0,1.3-0.6,1.3-1.3C21.5,8,20.7,5.8,20.3,5.8z"/>
			</g>
			<g>
				<path d="M15.1,7.3c-1.3,0-2.3-1-2.3-2.3c0-0.9,0.7-4.4,2.3-4.4c1.5,0,2.3,3.5,2.3,4.4C17.4,6.3,16.4,7.3,15.1,7.3z M15.1,1.7
					c-0.4,0-1.3,2.2-1.3,3.4c0,0.7,0.6,1.3,1.3,1.3c0.7,0,1.3-0.6,1.3-1.3C16.4,3.9,15.5,1.7,15.1,1.7z"/>
			</g>
		</g>
	</g>
</g>
</svg>
